<svg width="16" height="16" viewBox="0 0 16 16" fill="none" xmlns="http://www.w3.org/2000/svg">
<path fill-rule="evenodd" clip-rule="evenodd" d="M4.33335 10.6667H10.6667C11.9238 10.6667 12.5523 10.6667 12.9428 10.2761C13.3334 9.88562 13.3334 9.25708 13.3334 8V4.66667C13.3334 3.40959 13.3334 2.78105 12.9428 2.39052C12.5523 2 11.9238 2 10.6667 2H5.33335C4.07627 2 3.44774 2 3.05721 2.39052C2.66669 2.78105 2.66669 3.40959 2.66669 4.66667V12.3333C2.66669 11.4129 3.41288 10.6667 4.33335 10.6667ZM11.4142 6.74755C12.1953 5.9665 12.1953 4.70017 11.4142 3.91912C10.6332 3.13807 9.36686 3.13807 8.58581 3.91912L7.33108 5.17385C6.54575 4.47235 5.33971 4.49855 4.58581 5.25245C3.80476 6.0335 3.80476 7.29983 4.58581 8.08088L5.21203 8.70711C6.3836 9.87868 8.2831 9.87868 9.45467 8.70711L11.4142 6.74755Z" fill="white"/>
<path d="M12.9428 10.2761L12.2357 9.56904L12.2357 9.56904L12.9428 10.2761ZM12.9428 2.39052L12.2357 3.09763L12.2357 3.09763L12.9428 2.39052ZM3.05721 2.39052L2.3501 1.68342L2.3501 1.68342L3.05721 2.39052ZM11.4142 3.91912L10.7071 4.62623L11.4142 3.91912ZM11.4142 6.74755L10.7071 6.04044L11.4142 6.74755ZM8.58581 3.91912L9.29291 4.62623V4.62623L8.58581 3.91912ZM7.33108 5.17385L6.6649 5.91964L7.36983 6.54931L8.03819 5.88095L7.33108 5.17385ZM4.58581 5.25245L3.8787 4.54535L4.58581 5.25245ZM4.58581 8.08088L3.8787 8.78799L4.58581 8.08088ZM5.21203 8.70711L5.91914 8H5.91914L5.21203 8.70711ZM9.45467 8.70711L10.1618 9.41421L9.45467 8.70711ZM10.6667 9.66667H4.33335V11.6667H10.6667V9.66667ZM12.2357 9.56904C12.2351 9.56964 12.2351 9.56961 12.2356 9.56924C12.236 9.56886 12.2363 9.56865 12.2362 9.56871C12.2361 9.56878 12.235 9.56952 12.2325 9.57085C12.2299 9.5722 12.2255 9.57435 12.2187 9.57712C12.1897 9.58907 12.1252 9.60946 11.9965 9.62677C11.7155 9.66454 11.3235 9.66667 10.6667 9.66667V11.6667C11.267 11.6667 11.8178 11.6688 12.263 11.6089C12.7369 11.5452 13.2379 11.3953 13.6499 10.9832L12.2357 9.56904ZM12.3334 8C12.3334 8.65681 12.3312 9.04882 12.2935 9.32978C12.2761 9.45853 12.2558 9.52301 12.2438 9.55205C12.241 9.55877 12.2389 9.56319 12.2375 9.56577C12.2362 9.56832 12.2355 9.56945 12.2354 9.56956C12.2353 9.56965 12.2355 9.56933 12.2359 9.56887C12.2363 9.56841 12.2363 9.56843 12.2357 9.56904L13.6499 10.9832C14.062 10.5712 14.2119 10.0703 14.2756 9.59628C14.3355 9.15107 14.3334 8.60027 14.3334 8H12.3334ZM12.3334 4.66667V8H14.3334V4.66667H12.3334ZM12.2357 3.09763C12.2363 3.09824 12.2363 3.09826 12.2359 3.0978C12.2355 3.09734 12.2353 3.09702 12.2354 3.09711C12.2355 3.09722 12.2362 3.09835 12.2375 3.1009C12.2389 3.10347 12.241 3.10789 12.2438 3.11462C12.2558 3.14366 12.2761 3.20814 12.2935 3.33689C12.3312 3.61785 12.3334 4.00986 12.3334 4.66667H14.3334C14.3334 4.0664 14.3355 3.5156 14.2756 3.07039C14.2119 2.59642 14.062 2.09545 13.6499 1.68342L12.2357 3.09763ZM10.6667 3C11.3235 3 11.7155 3.00212 11.9965 3.0399C12.1252 3.05721 12.1897 3.0776 12.2187 3.08954C12.2255 3.09231 12.2299 3.09447 12.2325 3.09581C12.235 3.09714 12.2361 3.09788 12.2362 3.09795C12.2363 3.09801 12.236 3.0978 12.2356 3.09743C12.2351 3.09705 12.2351 3.09702 12.2357 3.09763L13.6499 1.68342C13.2379 1.27139 12.7369 1.12146 12.263 1.05773C11.8178 0.997876 11.267 1 10.6667 1V3ZM5.33335 3H10.6667V1H5.33335V3ZM3.76432 3.09763C3.76493 3.09702 3.76495 3.09705 3.76449 3.09743C3.76403 3.0978 3.76371 3.09801 3.7638 3.09795C3.76391 3.09788 3.76504 3.09714 3.76758 3.09581C3.77016 3.09447 3.77458 3.09231 3.78131 3.08954C3.81035 3.0776 3.87483 3.05721 4.00357 3.0399C4.28454 3.00212 4.67654 3 5.33335 3V1C4.73308 1 4.18228 0.997876 3.73708 1.05773C3.2631 1.12146 2.76214 1.27139 2.3501 1.68342L3.76432 3.09763ZM3.66669 4.66667C3.66669 4.00986 3.66881 3.61785 3.70659 3.33689C3.72389 3.20814 3.74428 3.14366 3.75623 3.11462C3.759 3.10789 3.76115 3.10347 3.7625 3.10089C3.76383 3.09835 3.76457 3.09722 3.76464 3.09711C3.7647 3.09702 3.76449 3.09734 3.76411 3.0978C3.76374 3.09826 3.76371 3.09824 3.76432 3.09763L2.3501 1.68342C1.93807 2.09545 1.78814 2.59642 1.72442 3.07039C1.66456 3.5156 1.66669 4.0664 1.66669 4.66667H3.66669ZM3.66669 12.3333V4.66667H1.66669V12.3333H3.66669ZM4.33335 9.66667C2.86059 9.66667 1.66669 10.8606 1.66669 12.3333H3.66669C3.66669 11.9651 3.96516 11.6667 4.33335 11.6667V9.66667ZM10.7071 4.62623C11.0977 5.01675 11.0977 5.64992 10.7071 6.04044L12.1213 7.45465C13.2929 6.28308 13.2929 4.38359 12.1213 3.21201L10.7071 4.62623ZM9.29291 4.62623C9.68344 4.2357 10.3166 4.2357 10.7071 4.62623L12.1213 3.21201C10.9498 2.04044 9.05027 2.04044 7.8787 3.21201L9.29291 4.62623ZM8.03819 5.88095L9.29291 4.62623L7.8787 3.21201L6.62397 4.46674L8.03819 5.88095ZM5.29291 5.95956C5.66963 5.58285 6.2729 5.56948 6.6649 5.91964L7.99726 4.42806C6.8186 3.37521 5.00979 3.41425 3.8787 4.54535L5.29291 5.95956ZM5.29291 7.37377C4.90239 6.98325 4.90239 6.35008 5.29291 5.95956L3.8787 4.54535C2.70713 5.71692 2.70713 7.61641 3.8787 8.78799L5.29291 7.37377ZM5.91914 8L5.29291 7.37377L3.8787 8.78799L4.50493 9.41421L5.91914 8ZM8.74757 8C7.96652 8.78105 6.70019 8.78105 5.91914 8L4.50493 9.41421C6.06702 10.9763 8.59968 10.9763 10.1618 9.41421L8.74757 8ZM10.7071 6.04044L8.74757 8L10.1618 9.41421L12.1213 7.45465L10.7071 6.04044ZM7.33335 13H4.33335V15H7.33335V13ZM1.66669 12.3333C1.66669 13.8061 2.86059 15 4.33335 15V13C3.96516 13 3.66669 12.7015 3.66669 12.3333H1.66669Z" fill="white"/>
<path d="M13.3334 14H6.66669" stroke="white" stroke-width="2" stroke-linecap="round"/>
</svg>
