<svg width="20" height="20" viewBox="0 0 20 20" fill="none" xmlns="http://www.w3.org/2000/svg">
<path d="M4.375 14.1663H7.5C8.88071 14.1663 10 15.2856 10 16.6663V8.95801C10 6.4924 10 5.25959 9.31903 4.42983C9.19437 4.27793 9.05508 4.13864 8.90318 4.01398C8.07342 3.33301 6.84061 3.33301 4.375 3.33301C3.55313 3.33301 3.14219 3.33301 2.86561 3.56C2.81497 3.60155 2.76854 3.64798 2.72699 3.69861C2.5 3.9752 2.5 4.38614 2.5 5.20801V12.2913C2.5 13.1132 2.5 13.5241 2.72699 13.8007C2.76854 13.8514 2.81497 13.8978 2.86561 13.9394C3.14219 14.1663 3.55313 14.1663 4.375 14.1663Z" stroke="#A7A7A7" stroke-width="2"/>
<path d="M15.625 14.1663H12.5C11.1193 14.1663 10 15.2856 10 16.6663V8.95801C10 6.4924 10 5.25959 10.681 4.42983C10.8056 4.27793 10.9449 4.13864 11.0968 4.01398C11.9266 3.33301 13.1594 3.33301 15.625 3.33301C16.4469 3.33301 16.8578 3.33301 17.1344 3.56C17.185 3.60155 17.2315 3.64798 17.273 3.69861C17.5 3.9752 17.5 4.38614 17.5 5.20801V12.2913C17.5 13.1132 17.5 13.5241 17.273 13.8007C17.2315 13.8514 17.185 13.8978 17.1344 13.9394C16.8578 14.1663 16.4469 14.1663 15.625 14.1663Z" stroke="#A7A7A7" stroke-width="2"/>
</svg>
