<svg width="16" height="16" viewBox="0 0 16 16" fill="none" xmlns="http://www.w3.org/2000/svg">
<path d="M3.2818 3.29015L4.32497 4.33334M14.6667 8C14.6667 11.6819 11.6819 14.6667 8.00004 14.6667C4.31814 14.6667 1.33337 11.6819 1.33337 8H14.6667ZM14.6667 8H13.3334H14.6667ZM14.6667 8C14.6667 6.1612 13.9222 4.49624 12.7183 3.29015L14.6667 8ZM1.33337 8H2.66671H1.33337ZM1.33337 8C1.33337 6.16117 2.07784 4.49624 3.2818 3.29015L1.33337 8ZM8.00004 1.33334V2.66667V1.33334ZM8.00004 1.33334C9.84311 1.33334 11.5115 2.08126 12.7183 3.29015L8.00004 1.33334ZM8.00004 1.33334C6.15697 1.33334 4.48857 2.08126 3.2818 3.29015L8.00004 1.33334ZM12.7183 3.29015L11.6751 4.33334L12.7183 3.29015Z" stroke="#242323" stroke-width="1.5" stroke-linecap="round" stroke-linejoin="round"/>
<path d="M8 6.66667V10.6667" stroke="#242323" stroke-width="1.5" stroke-linecap="round" stroke-linejoin="round"/>
<path d="M13.2841 12.0654C12.0652 13.6474 10.1516 14.6667 8.00004 14.6667C5.84844 14.6667 3.93491 13.6474 2.71594 12.0654C4.27367 11.1753 6.07747 10.6667 8.00004 10.6667C9.92261 10.6667 11.7264 11.1753 13.2841 12.0654Z" stroke="#242323" stroke-width="1.5" stroke-linecap="round" stroke-linejoin="round"/>
</svg>
