<svg width="12" height="12" viewBox="0 0 12 12" fill="none" xmlns="http://www.w3.org/2000/svg">
<path fill-rule="evenodd" clip-rule="evenodd" d="M6 10.5C8.48528 10.5 10.5 8.48528 10.5 6C10.5 5.17646 10.2788 4.40459 9.89251 3.74057L6.66921 7.32202C6.06312 7.99545 5.04325 8.09494 4.31844 7.55133L3.05 6.6C2.71863 6.35147 2.65147 5.88137 2.9 5.55C3.14853 5.21863 3.61863 5.15147 3.95 5.4L5.21844 6.35133C5.32198 6.42899 5.46768 6.41478 5.55426 6.31857L8.9215 2.5772C8.13536 1.90555 7.11504 1.5 6 1.5C3.51472 1.5 1.5 3.51472 1.5 6C1.5 8.48528 3.51472 10.5 6 10.5Z" fill="#2854F6"/>
</svg>
