<svg width="20" height="20" viewBox="0 0 20 20" fill="none" xmlns="http://www.w3.org/2000/svg">
<rect x="5" y="10.833" width="3.33333" height="3.33333" rx="1.66667" transform="rotate(90 5 10.833)" stroke="#A7A7A7" stroke-width="2"/>
<rect x="14.1667" y="10" width="3.33333" height="3.33333" rx="1.66667" transform="rotate(-90 14.1667 10)" stroke="#A7A7A7" stroke-width="2"/>
<path d="M15 9.16634L13.75 10.4163C13.1267 11.0396 12.8151 11.3513 12.4709 11.5025C11.9584 11.7275 11.375 11.7275 10.8625 11.5025C10.5183 11.3513 10.2067 11.0396 9.58335 10.4163V10.4163C8.96005 9.79304 8.64841 9.48139 8.30419 9.33023C7.7917 9.10517 7.20834 9.10517 6.69585 9.33023C6.35164 9.48139 6.03999 9.79304 5.41669 10.4163L4.16669 11.6663" stroke="#A7A7A7" stroke-width="2"/>
</svg>
