<svg width="16" height="16" viewBox="0 0 16 16" fill="none" xmlns="http://www.w3.org/2000/svg">
<path d="M12.6667 4.33329H10.6667V3.66663C10.6667 3.13619 10.456 2.62749 10.0809 2.25241C9.70582 1.87734 9.19711 1.66663 8.66668 1.66663H7.33334C6.80291 1.66663 6.2942 1.87734 5.91913 2.25241C5.54406 2.62749 5.33334 3.13619 5.33334 3.66663V4.33329H3.33334C2.80291 4.33329 2.2942 4.54401 1.91913 4.91908C1.54406 5.29415 1.33334 5.80286 1.33334 6.33329V12.3333C1.33334 12.8637 1.54406 13.3724 1.91913 13.7475C2.2942 14.1226 2.80291 14.3333 3.33334 14.3333H12.6667C13.1971 14.3333 13.7058 14.1226 14.0809 13.7475C14.456 13.3724 14.6667 12.8637 14.6667 12.3333V6.33329C14.6667 5.80286 14.456 5.29415 14.0809 4.91908C13.7058 4.54401 13.1971 4.33329 12.6667 4.33329ZM6.66668 3.66663C6.66668 3.48981 6.73692 3.32025 6.86194 3.19522C6.98696 3.0702 7.15653 2.99996 7.33334 2.99996H8.66668C8.84349 2.99996 9.01306 3.0702 9.13808 3.19522C9.26311 3.32025 9.33334 3.48981 9.33334 3.66663V4.33329H6.66668V3.66663ZM13.3333 12.3333C13.3333 12.5101 13.2631 12.6797 13.1381 12.8047C13.0131 12.9297 12.8435 13 12.6667 13H3.33334C3.15653 13 2.98696 12.9297 2.86194 12.8047C2.73691 12.6797 2.66668 12.5101 2.66668 12.3333V8.66663C4.36418 9.34005 6.1738 9.68614 8.00001 9.68663C9.82616 9.6855 11.6357 9.33944 13.3333 8.66663V12.3333ZM13.3333 7.20663C11.6523 7.94514 9.83615 8.32648 8.00001 8.32648C6.16387 8.32648 4.34775 7.94514 2.66668 7.20663V6.33329C2.66668 6.15648 2.73691 5.98691 2.86194 5.86189C2.98696 5.73686 3.15653 5.66663 3.33334 5.66663H12.6667C12.8435 5.66663 13.0131 5.73686 13.1381 5.86189C13.2631 5.98691 13.3333 6.15648 13.3333 6.33329V7.20663Z" fill="#242323"/>
</svg>
