<svg width="36" height="36" viewBox="0 0 36 36" fill="none" xmlns="http://www.w3.org/2000/svg">
<path d="M28.5 15C28.1022 15 27.7206 15.158 27.4393 15.4393C27.158 15.7206 27 16.1022 27 16.5V21.57L24.78 19.35C23.9961 18.5723 22.9367 18.1359 21.8325 18.1359C20.7283 18.1359 19.6689 18.5723 18.885 19.35L17.835 20.415L14.115 16.68C13.3311 15.9023 12.2717 15.4659 11.1675 15.4659C10.0633 15.4659 9.00387 15.9023 8.22 16.68L6 18.915V10.5C6 10.1022 6.15804 9.72064 6.43934 9.43934C6.72064 9.15804 7.10218 9 7.5 9H19.5C19.8978 9 20.2794 8.84196 20.5607 8.56066C20.842 8.27936 21 7.89782 21 7.5C21 7.10218 20.842 6.72064 20.5607 6.43934C20.2794 6.15804 19.8978 6 19.5 6H7.5C6.30653 6 5.16193 6.47411 4.31802 7.31802C3.47411 8.16193 3 9.30653 3 10.5V28.83C3.00395 29.9347 3.44456 30.9931 4.22573 31.7743C5.0069 32.5554 6.06526 32.996 7.17 33H25.83C26.2365 32.9968 26.6405 32.9362 27.03 32.82C27.8962 32.5771 28.6587 32.0566 29.2006 31.3386C29.7425 30.6206 30.0339 29.7446 30.03 28.845V16.5C30.03 16.3005 29.9903 16.1029 29.913 15.919C29.8358 15.735 29.7226 15.5683 29.5801 15.4286C29.4376 15.2889 29.2687 15.179 29.0832 15.1055C28.8978 15.0319 28.6995 14.996 28.5 15ZM7.5 30C7.10218 30 6.72064 29.842 6.43934 29.5607C6.15804 29.2794 6 28.8978 6 28.5V23.145L10.335 18.81C10.5542 18.592 10.8508 18.4696 11.16 18.4696C11.4692 18.4696 11.7658 18.592 11.985 18.81L23.19 30H7.5ZM27 28.5C26.9904 28.7905 26.8966 29.0719 26.73 29.31L19.95 22.5L21.015 21.45C21.1225 21.3402 21.2509 21.253 21.3926 21.1935C21.5342 21.134 21.6863 21.1033 21.84 21.1033C21.9937 21.1033 22.1458 21.134 22.2874 21.1935C22.4291 21.253 22.5575 21.3402 22.665 21.45L27 25.815V28.5ZM31.5 6H30V4.5C30 4.10218 29.842 3.72064 29.5607 3.43934C29.2794 3.15804 28.8978 3 28.5 3C28.1022 3 27.7206 3.15804 27.4393 3.43934C27.158 3.72064 27 4.10218 27 4.5V6H25.5C25.1022 6 24.7206 6.15804 24.4393 6.43934C24.158 6.72064 24 7.10218 24 7.5C24 7.89782 24.158 8.27936 24.4393 8.56066C24.7206 8.84196 25.1022 9 25.5 9H27V10.5C27 10.8978 27.158 11.2794 27.4393 11.5607C27.7206 11.842 28.1022 12 28.5 12C28.8978 12 29.2794 11.842 29.5607 11.5607C29.842 11.2794 30 10.8978 30 10.5V9H31.5C31.8978 9 32.2794 8.84196 32.5607 8.56066C32.842 8.27936 33 7.89782 33 7.5C33 7.10218 32.842 6.72064 32.5607 6.43934C32.2794 6.15804 31.8978 6 31.5 6Z" fill="#7A7A7A"/>
</svg>
