<svg width="16" height="16" viewBox="0 0 16 16" fill="none" xmlns="http://www.w3.org/2000/svg">
<path d="M5.50003 10C7.29496 10 8.75003 8.54493 8.75003 6.75C8.75003 4.95507 7.29496 3.5 5.50003 3.5C3.7051 3.5 2.25003 4.95507 2.25003 6.75C2.25003 8.54493 3.7051 10 5.50003 10Z" stroke="#242323" stroke-width="1.5" stroke-miterlimit="10"/>
<path d="M9.71329 3.62107C10.1603 3.49513 10.6291 3.46644 11.0881 3.53693C11.5472 3.60743 11.9858 3.77547 12.3744 4.02975C12.763 4.28403 13.0926 4.61863 13.3411 5.01102C13.5895 5.40342 13.7509 5.84449 13.8145 6.30453C13.8781 6.76457 13.8424 7.2329 13.7097 7.67797C13.5771 8.12304 13.3506 8.53452 13.0456 8.8847C12.7405 9.23487 12.364 9.51561 11.9413 9.70799C11.5186 9.90038 11.0596 9.99996 10.5951 10" stroke="#242323" stroke-width="1.5" stroke-linecap="round" stroke-linejoin="round"/>
<path d="M0.999756 12.3373C1.50734 11.6153 2.18119 11.026 2.96441 10.6192C3.74764 10.2124 4.61724 10 5.49981 10C6.38238 9.99997 7.252 10.2123 8.03525 10.619C8.81851 11.0258 9.4924 11.615 10 12.337" stroke="#242323" stroke-width="1.5" stroke-linecap="round" stroke-linejoin="round"/>
<path d="M10.5951 10C11.4778 9.99936 12.3476 10.2114 13.1309 10.6182C13.9142 11.025 14.588 11.6146 15.0951 12.337" stroke="#242323" stroke-width="1.5" stroke-linecap="round" stroke-linejoin="round"/>
</svg>
