<svg width="20" height="21" viewBox="0 0 20 21" fill="none" xmlns="http://www.w3.org/2000/svg">
<path fill-rule="evenodd" clip-rule="evenodd" d="M15.3818 12.9272C15.9747 12.373 16.4646 11.8237 16.8233 11.3881C17.1468 10.9954 17.3085 10.799 17.3085 10.5C17.3085 10.201 17.1468 10.0046 16.8233 9.61191C15.6399 8.17512 13.0297 5.5 9.99997 5.5C9.39504 5.5 8.80684 5.60664 8.24339 5.78878L10.5058 8.0512C11.4807 8.25152 12.2484 9.01931 12.4488 9.99415L15.3818 12.9272ZM7.7092 9.49723C7.57464 9.80419 7.49997 10.1434 7.49997 10.5C7.49997 11.8807 8.61926 13 9.99997 13C10.3566 13 10.6958 12.9253 11.0027 12.7908L12.9268 14.7148C12.0275 15.1858 11.0384 15.5 9.99997 15.5C6.97019 15.5 4.36002 12.8249 3.17661 11.3881C2.85314 10.9954 2.69141 10.799 2.69141 10.5C2.69141 10.201 2.85314 10.0046 3.17661 9.61191C3.70319 8.97258 4.51227 8.08806 5.51512 7.30314L7.7092 9.49723Z" fill="#2854F6"/>
<path d="M4.16669 2.16663L17.5 15.5" stroke="#2854F6" stroke-width="2"/>
</svg>
